<?xml version="1.0" encoding="UTF-8"?>
<svg id="Laag_1" data-name="Laag 1" xmlns="http://www.w3.org/2000/svg" viewBox="0 0 484.84 406.99">
  <defs>
    <style>
      .cls-1 {
        fill: #e83d71;
      }

      .cls-1, .cls-2, .cls-3, .cls-4, .cls-5 {
        stroke: #1d1d3d;
        stroke-linecap: round;
        stroke-linejoin: round;
        stroke-width: 1.41px;
      }

      .cls-2, .cls-6 {
        fill: #ffd601;
      }

      .cls-7, .cls-5 {
        fill: #1d1d3d;
      }

      .cls-8, .cls-3 {
        fill: #fffbde;
      }

      .cls-9, .cls-4 {
        fill: #a3daf5;
      }
    </style>
  </defs>
  <g>
    <g>
      <rect class="cls-5" x="356.81" y="314.36" width="7.09" height="21.2" transform="translate(43.01 -42.12) rotate(7.11)"/>
      <g>
        <g>
          <g>
            <path class="cls-7" d="M401.38,365.85c-.48-11.97-8.4-22.84-18.68-29-7.86-4.71-16.91-6.97-26.09-7.69-8.47-.67-17.09,1.13-24.14,5.88-6.26,4.22-11.13,10.24-14.05,17.51-5.05,12.57-2.82,26.61,5.19,37.54,15.28,20.87,44.84,20.28,62.89,5.57,8.93-7.27,15.35-18.3,14.89-29.8ZM377.56,387.42c-12.28,10.38-32.38,10.8-42.78-3.93-5.44-7.72-6.96-17.62-3.53-26.49,1.98-5.13,5.3-9.38,9.56-12.36,4.79-3.35,10.66-4.62,16.42-4.15,6.25.51,12.41,2.11,17.75,5.43,6.99,4.35,12.38,12.02,12.71,20.47.31,8.12-4.06,15.9-10.13,21.04Z"/>
            <g>
              <path class="cls-7" d="M402.09,365.85c-.37-8.52-4.37-16.47-10.21-22.58-6.47-6.76-15.07-10.97-24.11-13.12-9.38-2.22-19.46-2.83-28.61.65-8.42,3.2-15.37,9.64-19.58,17.56s-5.59,17.4-3.69,26.33c1.8,8.43,6.38,16.34,12.82,22.08,5.44,4.85,12.18,8.08,19.34,9.43s14.44.93,21.37-1c7.09-1.97,13.74-5.53,19.22-10.46,6.5-5.84,11.53-13.76,13.01-22.46.36-2.13.52-4.28.44-6.43-.03-.91-1.45-.91-1.41,0,.31,8.62-3.26,16.94-8.75,23.46-4.8,5.72-11.06,10.13-18,12.88-6.43,2.55-13.4,3.72-20.31,3.29s-13.71-2.55-19.52-6.35c-6.65-4.35-11.85-10.87-14.82-18.22-3.3-8.17-3.78-17.32-1.06-25.72,2.63-8.15,8.09-15.39,15.33-20,3.9-2.48,8.29-4.09,12.83-4.88,4.65-.81,9.34-.65,14-.05,9.19,1.17,18.39,4.15,25.82,9.82,6.48,4.96,11.64,11.96,13.63,19.94.48,1.92.76,3.87.85,5.84.04.91,1.45.91,1.41,0Z"/>
              <path class="cls-7" d="M377.06,386.92c-7.19,6.05-17.27,8.73-26.46,6.54-4.7-1.12-9.02-3.53-12.41-6.98-4.09-4.16-6.81-9.64-7.73-15.39-1.92-11.98,4.9-25.07,16.77-28.83,6.12-1.94,12.84-1.23,18.92.53s11.22,4.85,15.16,9.56c3.64,4.35,5.88,9.91,5.68,15.62s-2.93,11.55-6.82,15.92c-.96,1.08-2,2.09-3.1,3.02-.69.59.31,1.59,1,1,4.69-3.99,8.34-9.42,9.73-15.45,1.38-5.98.27-12.15-2.85-17.4s-8.06-9.43-13.71-11.92c-3.15-1.39-6.47-2.32-9.87-2.87s-6.54-.8-9.82-.39c-6.44.8-12.25,3.99-16.38,9.01-4.05,4.91-6.36,11.16-6.45,17.53-.17,11.66,6.98,22.97,17.9,27.26,9.31,3.66,20.25,1.96,28.49-3.53,1.03-.69,2.02-1.44,2.96-2.23.7-.59-.31-1.58-1-1Z"/>
            </g>
          </g>
          <g>
            <path class="cls-8" d="M374.98,345.91c-5.35-3.32-11.5-4.92-17.75-5.43-5.76-.47-11.63.8-16.42,4.15-4.26,2.98-7.57,7.23-9.56,12.36-3.44,8.87-1.92,18.78,3.53,26.49,10.4,14.73,30.5,14.32,42.78,3.93,6.07-5.13,10.44-12.92,10.13-21.04-.32-8.45-5.71-16.12-12.71-20.47Z"/>
            <path class="cls-7" d="M375.34,345.3c-5.8-3.58-12.79-5.41-19.59-5.61s-12.97,1.97-17.88,6.38-7.83,10.11-8.8,16.31.18,12.7,3.15,18.28c2.59,4.87,6.53,9.02,11.41,11.64,4.39,2.35,9.39,3.44,14.36,3.3,10.68-.3,20.96-6.08,26.54-15.24,3.2-5.25,4.66-11.5,3.44-17.59s-4.63-11.12-9.14-14.93c-1.1-.93-2.27-1.78-3.49-2.55-.77-.48-1.48.74-.71,1.22,4.77,2.99,8.75,7.46,10.82,12.74s1.96,11.46-.33,16.87c-4.09,9.66-13.57,16.36-23.86,17.8-4.61.64-9.38.2-13.76-1.41-4.6-1.7-8.64-4.76-11.59-8.67-3.64-4.82-5.75-10.76-5.79-16.82s2.01-12.1,5.79-16.84,9.27-8.02,15.4-8.87c3.22-.45,6.48-.21,9.67.31s6.36,1.35,9.33,2.64c1.49.64,2.92,1.39,4.3,2.25.78.48,1.49-.74.71-1.22Z"/>
          </g>
        </g>
        <circle class="cls-5" cx="356.81" cy="366.45" r="7.09"/>
        <path class="cls-7" d="M358.23,337.32c-1.25,15.67-2.5,31.34-3.75,47.02-.35,4.39-.7,8.79-1.05,13.18-.07.91,1.34.9,1.41,0,1.25-15.67,2.5-31.34,3.75-47.02.35-4.39.7-8.79,1.05-13.18.07-.91-1.34-.9-1.41,0h0Z"/>
        <path class="cls-7" d="M322.69,366.98c8.76.33,17.52.56,26.29.69s17.45.15,26.17.07c4.94-.04,9.89-.12,14.83-.23.91-.02.91-1.43,0-1.41-8.76.19-17.53.29-26.29.28-8.72-.01-17.45-.12-26.17-.34-4.94-.12-9.88-.28-14.82-.46-.91-.03-.91,1.38,0,1.41h0Z"/>
        <path class="cls-7" d="M330.79,389.1c6.74-5.27,13.48-10.55,20.22-15.82,6.74-5.27,13.48-10.55,20.22-15.82,3.79-2.97,7.59-5.94,11.38-8.91.72-.56-.29-1.55-1-1-6.74,5.27-13.48,10.55-20.22,15.82-6.74,5.27-13.48,10.55-20.22,15.82-3.79,2.97-7.59,5.94-11.38,8.91-.72.56.29,1.55,1,1h0Z"/>
        <path class="cls-7" d="M336.95,346.44c9.97,12.25,19.94,24.51,29.91,36.76,2.83,3.48,5.67,6.97,8.5,10.45.57.71,1.57-.3,1-1-9.97-12.25-19.94-24.51-29.91-36.76-2.83-3.48-5.67-6.97-8.5-10.45-.57-.71-1.57.3-1,1h0Z"/>
      </g>
    </g>
    <g>
      <rect class="cls-5" x="154.65" y="304.88" width="7.09" height="21.2" transform="translate(40.28 -17.16) rotate(7.11)"/>
      <g>
        <g>
          <g>
            <path class="cls-7" d="M199.22,356.37c-.48-11.97-8.4-22.84-18.68-29-7.86-4.71-16.91-6.97-26.09-7.69-8.47-.67-17.09,1.13-24.14,5.88-6.26,4.22-11.13,10.24-14.05,17.51-5.05,12.57-2.82,26.61,5.19,37.54,15.28,20.87,44.84,20.28,62.89,5.57,8.93-7.27,15.35-18.3,14.89-29.8ZM175.41,377.94c-12.28,10.38-32.38,10.8-42.78-3.93-5.44-7.72-6.96-17.62-3.53-26.49,1.98-5.13,5.3-9.38,9.56-12.36,4.79-3.35,10.66-4.62,16.42-4.15,6.25.51,12.41,2.11,17.75,5.43,6.99,4.35,12.38,12.02,12.71,20.47.31,8.12-4.06,15.9-10.13,21.04Z"/>
            <g>
              <path class="cls-7" d="M199.93,356.37c-.37-8.52-4.37-16.47-10.21-22.58-6.47-6.76-15.07-10.97-24.11-13.12s-19.46-2.83-28.61.65c-8.42,3.2-15.37,9.64-19.58,17.56s-5.59,17.4-3.69,26.33c1.8,8.43,6.38,16.34,12.82,22.08,5.44,4.85,12.18,8.08,19.34,9.43s14.44.93,21.37-1,13.74-5.53,19.22-10.46c6.5-5.84,11.53-13.76,13.01-22.46.36-2.13.52-4.28.44-6.43-.03-.91-1.45-.91-1.41,0,.31,8.62-3.26,16.94-8.75,23.46-4.8,5.72-11.06,10.13-18,12.88-6.43,2.55-13.4,3.72-20.31,3.29s-13.71-2.55-19.52-6.35c-6.65-4.35-11.85-10.87-14.82-18.22-3.3-8.17-3.78-17.32-1.06-25.72s8.09-15.39,15.33-20c3.9-2.48,8.29-4.09,12.83-4.88s9.34-.65,14-.05c9.19,1.17,18.39,4.15,25.82,9.82,6.48,4.96,11.64,11.96,13.63,19.94.48,1.92.76,3.87.85,5.84.04.91,1.45.91,1.41,0Z"/>
              <path class="cls-7" d="M174.91,377.44c-7.19,6.05-17.27,8.73-26.46,6.54-4.7-1.12-9.02-3.53-12.41-6.98-4.09-4.16-6.81-9.64-7.73-15.39-1.92-11.98,4.9-25.07,16.77-28.83,6.12-1.94,12.84-1.23,18.92.53s11.22,4.85,15.16,9.56c3.64,4.35,5.88,9.91,5.68,15.62-.21,5.91-2.93,11.55-6.82,15.92-.96,1.08-2,2.09-3.1,3.02-.69.59.31,1.59,1,1,4.69-3.99,8.34-9.42,9.73-15.45,1.38-5.98.27-12.15-2.85-17.4s-8.06-9.43-13.71-11.92c-3.15-1.39-6.47-2.32-9.87-2.87s-6.54-.8-9.82-.39c-6.44.8-12.25,3.99-16.38,9.01s-6.36,11.16-6.45,17.53c-.17,11.66,6.98,22.97,17.9,27.26,9.31,3.66,20.25,1.96,28.49-3.53,1.03-.69,2.02-1.44,2.96-2.23.7-.59-.31-1.58-1-1Z"/>
            </g>
          </g>
          <g>
            <path class="cls-8" d="M172.83,336.43c-5.35-3.32-11.5-4.92-17.75-5.43-5.76-.47-11.63.8-16.42,4.15-4.26,2.98-7.57,7.23-9.56,12.36-3.44,8.87-1.92,18.78,3.53,26.49,10.4,14.73,30.5,14.32,42.78,3.93,6.07-5.13,10.44-12.92,10.13-21.04-.32-8.45-5.71-16.12-12.71-20.47Z"/>
            <path class="cls-7" d="M173.18,335.82c-5.8-3.58-12.79-5.41-19.59-5.61s-12.97,1.97-17.88,6.38-7.83,10.11-8.8,16.31c-.98,6.26.18,12.7,3.15,18.28,2.59,4.87,6.53,9.02,11.41,11.64,4.39,2.35,9.39,3.44,14.36,3.3,10.68-.3,20.96-6.08,26.54-15.24,3.2-5.25,4.66-11.5,3.44-17.59s-4.63-11.12-9.14-14.93c-1.1-.93-2.27-1.78-3.49-2.55-.77-.48-1.48.74-.71,1.22,4.77,2.99,8.75,7.46,10.82,12.74s1.96,11.46-.33,16.87c-4.09,9.66-13.57,16.36-23.86,17.8-4.61.64-9.38.2-13.76-1.41-4.6-1.7-8.64-4.76-11.59-8.67-3.64-4.82-5.75-10.76-5.79-16.82s2.01-12.1,5.79-16.84c3.85-4.82,9.27-8.02,15.4-8.87,3.22-.45,6.48-.21,9.67.31s6.36,1.35,9.33,2.64c1.49.64,2.92,1.39,4.3,2.25.78.48,1.49-.74.71-1.22Z"/>
          </g>
        </g>
        <circle class="cls-5" cx="154.65" cy="356.97" r="7.09"/>
        <path class="cls-7" d="M156.07,327.83c-1.25,15.67-2.5,31.34-3.75,47.02-.35,4.39-.7,8.79-1.05,13.18-.07.91,1.34.9,1.41,0,1.25-15.67,2.5-31.34,3.75-47.02.35-4.39.7-8.79,1.05-13.18.07-.91-1.34-.9-1.41,0h0Z"/>
        <path class="cls-7" d="M120.53,357.49c8.76.33,17.52.56,26.29.69,8.72.13,17.45.15,26.17.07,4.94-.04,9.89-.12,14.83-.23.91-.02.91-1.43,0-1.41-8.76.19-17.53.29-26.29.28-8.72-.01-17.45-.12-26.17-.34-4.94-.12-9.88-.28-14.82-.46-.91-.03-.91,1.38,0,1.41h0Z"/>
        <path class="cls-7" d="M128.63,379.62c6.74-5.27,13.48-10.55,20.22-15.82s13.48-10.55,20.22-15.82c3.79-2.97,7.59-5.94,11.38-8.91.72-.56-.29-1.55-1-1-6.74,5.27-13.48,10.55-20.22,15.82-6.74,5.27-13.48,10.55-20.22,15.82-3.79,2.97-7.59,5.94-11.38,8.91-.72.56.29,1.55,1,1h0Z"/>
        <path class="cls-7" d="M134.79,336.96c9.97,12.25,19.94,24.51,29.91,36.76,2.83,3.48,5.67,6.97,8.5,10.45.57.71,1.57-.3,1-1-9.97-12.25-19.94-24.51-29.91-36.76-2.83-3.48-5.67-6.97-8.5-10.45-.57-.71-1.57.3-1,1h0Z"/>
      </g>
    </g>
    <circle class="cls-4" cx="66.3" cy="262.79" r="65.59"/>
    <path class="cls-1" d="M23.67,262.05s.1-.06.15-.09c4.82-3.11,8.28-7.89,11.62-12.55-3.7,10.57,4.66,23.51,15.81,24.49,11.16.98,21.63-10.32,19.83-21.37,3.53,6.6,8.96,12.34,15.79,15.41,6.83,3.06,15.12,3.2,21.66-.45,9.35-5.21,13.38-17.05,12.33-27.7-.56-5.69-2.36-12.71-5.07-20.03-12.03-13.81-29.72-22.56-49.48-22.56-33.53,0-61.17,25.17-65.1,57.65.15.53.42,1.11.78,1.72,4.42,7.49,14.34,10.14,21.69,5.48Z"/>
    <path class="cls-7" d="M103.68,209.37s-37.85,54.72,17.89,88.75c55.74,34.03,0,0,0,0l6.65-13.65-16.06-68.28-8.48-6.82"/>
    <circle class="cls-1" cx="161.75" cy="242.63" r="65.59"/>
    <path class="cls-7" d="M225.08,225.49s-6.43,2.5-13.58,7.35c-19,12.89-31.07,33.77-33.66,56.58l-1.51,17.17,21.65-6.73,31.66-55.13-3.23-14-1.32-5.25Z"/>
    <circle class="cls-4" cx="253.44" cy="289.43" r="65.59"/>
    <path class="cls-1" d="M198.29,261.89c-.59,3.09-.76,6.58,2.85,8.58,1.54.86,3.33,1.13,5.09.99,7.29-.6,13.86-5.91,16.16-12.81-1.92,6.9-2.57,14.97,3.92,19.99,1.99,1.54,4.39,2.49,6.89,2.83,7.66,1.02,14.55-3.1,19.42-8.6,3.82-4.31,6.57-9.46,9.25-14.56-.17,8.08,4.27,15.92,10.86,20.6,6.58,4.68,15.07,6.31,23.08,5.23,5.35-.72,10.81-2.81,14.06-7.12,3.24-4.3,3.72-10.24,2.26-15.42-.17-.6-.32-1.41-.45-2.37-10.93-21.02-32.89-35.39-58.22-35.39-12.06,0-23.35,3.26-33.05,8.94s-16.85,14.04-20.69,24.28c-.64,1.72-1.11,3.28-1.37,4.62-.01.07-.03.14-.04.22Z"/>
    <path class="cls-7" d="M285.65,231.91s-8.83,35.73,3.56,58.57c10.09,18.59,22.51,29.07,22.51,29.07l9.91-26.89-29.65-57.06-6.34-3.69Z"/>
    <circle class="cls-1" cx="353.76" cy="252.69" r="65.59"/>
    <g>
      <path class="cls-9" d="M328.86,191.96c-8.84,3.37-16.55,9.63-21.66,17.59-1.67,2.6-3.1,5.48-3.29,8.57-.18,3.09,1.12,6.42,3.82,7.93,2.39,1.34,5.36,1.04,8.02.37,7.51-1.89,14.3-6.49,18.83-12.77-4.19,5.9-6.89,12.85-7.77,20.03-.51,4.13-.13,8.97,3.22,11.44,3,2.22,7.22,1.63,10.72.35,8.67-3.17,15.88-10.09,19.41-18.61-1.35,5.47-2.71,11.14-1.67,16.68,1.04,5.54,5.17,10.92,10.77,11.5,4.15.44,8.16-1.79,11.25-4.59,6.45-5.82,10.21-14.51,10.03-23.19-.12,6.16.36,12.67,3.79,17.79,3.43,5.12,10.67,8.13,16,5.04,4.99-2.9,6.26-9.66,5.43-15.38-1.38-9.46-6.9-17.76-12.65-25.39-6.21-8.24-13.2-16.4-22.59-20.69-7.81-3.57-16.72-4.16-25.24-3.11-8.52,1.05-16.77,3.64-24.96,6.23"/>
      <path class="cls-7" d="M328.67,191.27c-4.97,1.91-9.57,4.67-13.6,8.15-4.01,3.46-7.67,7.73-10.05,12.49-1.22,2.42-2.08,5.17-1.76,7.91.27,2.39,1.31,4.74,3.24,6.24,2.17,1.69,4.99,1.83,7.61,1.42s5.16-1.31,7.56-2.4c5.38-2.44,10.05-6.3,13.52-11.07l-1.22-.71c-3.16,4.48-5.5,9.55-6.85,14.87-1.13,4.48-2.06,9.79-.13,14.19.9,2.06,2.55,3.65,4.67,4.42,2.3.84,4.89.61,7.22.02,4.63-1.18,8.99-3.75,12.6-6.85,4.08-3.5,7.29-7.94,9.36-12.9l-1.36-.38c-1.35,5.48-2.71,11.17-1.71,16.82.74,4.22,3.15,8.36,6.83,10.65,9.01,5.61,18.75-3.87,22.8-11.33,2.58-4.75,3.95-10.14,3.86-15.55-.01-.91-1.4-.91-1.41,0-.1,5.51.24,11.28,2.79,16.28,2.17,4.25,6.24,7.61,11.04,8.35,2.24.35,4.53.09,6.57-.95s3.59-2.73,4.62-4.7c2.25-4.3,2.17-9.42,1.16-14.04-1.23-5.6-3.85-10.81-6.92-15.61s-6.53-9.37-10.18-13.72-7.46-8.21-12-11.38-10.05-5.45-15.7-6.43c-12.35-2.13-24.72.94-36.48,4.56-1.54.47-3.07.96-4.6,1.44-.86.27-.5,1.64.38,1.36,11.4-3.6,23.12-7.28,35.22-6.58,5.65.33,11.26,1.65,16.28,4.3,4.62,2.44,8.65,5.84,12.24,9.61s7.02,8.17,10.18,12.53,6.24,9.09,8.3,14.18c1.86,4.58,3.14,9.73,2.3,14.69-.71,4.21-3.11,8.32-7.56,9.28-4.34.94-8.94-1.38-11.71-4.64-3.37-3.96-4.3-9.52-4.49-14.56-.05-1.32-.05-2.65-.03-3.98h-1.41c.15,8.95-3.89,18.01-10.93,23.63-3.44,2.74-8.12,4.63-12.39,2.68-3.64-1.66-6.1-5.32-7.1-9.09-1.52-5.75.03-11.83,1.41-17.44.22-.91-1.02-1.19-1.36-.38-3.43,8.22-10.39,14.95-18.74,18.05-4,1.49-9.47,2.17-12.02-2.1-2.25-3.77-1.41-8.88-.5-12.92,1.26-5.64,3.65-10.97,6.98-15.69.53-.75-.69-1.44-1.22-.71-2.88,3.97-6.67,7.24-10.99,9.56-2.17,1.17-4.47,2.09-6.85,2.73s-5.13,1.14-7.5.12c-2.09-.9-3.36-2.93-3.83-5.09-.54-2.47.07-5.04,1.11-7.3,2.07-4.51,5.43-8.55,9.05-11.9,4.09-3.77,8.89-6.78,14.09-8.78.84-.32.48-1.69-.38-1.36h0Z"/>
    </g>
    <path class="cls-7" d="M321.64,195.5s40.79,53.39,89.04,24.57l-16.52-24.57-52.13-8.4-20.39,8.4Z"/>
    <circle class="cls-4" cx="382.07" cy="153.51" r="65.59"/>
    <g>
      <path class="cls-9" d="M336.13,95.94c-3.13-15.54-.99-32.1,6-46.33,6.98-14.23,18.77-26.06,32.98-33.09l3.69,5.92c-12.95,6.66-23.7,17.53-30.2,30.56-6.5,13.03-8.73,28.15-6.27,42.5"/>
      <path class="cls-7" d="M336.81,95.75c-2.55-12.77-1.53-26.19,2.83-38.45,4-11.23,10.89-21.32,19.75-29.27,4.83-4.34,10.25-8,16.06-10.89l-.97-.25c1.23,1.97,2.46,3.94,3.69,5.92l.25-.97c-9.72,5.02-18.18,12.35-24.61,21.2-6.88,9.48-11.2,20.65-12.64,32.26-.85,6.78-.68,13.67.46,20.41.15.9,1.52.52,1.36-.38-2-11.78-.82-24.04,3.3-35.25,3.76-10.23,10.06-19.44,18.11-26.77,4.44-4.05,9.4-7.49,14.74-10.25.33-.17.45-.66.25-.97-1.23-1.97-2.46-3.94-3.69-5.92-.21-.34-.62-.43-.97-.25-10.62,5.28-19.87,13.17-26.84,22.76-7.49,10.3-12.09,22.5-13.46,35.14-.81,7.44-.46,14.98,1,22.31.18.89,1.54.51,1.36-.38h0Z"/>
    </g>
    <g>
      <path class="cls-9" d="M422.08,111.89c-2.13-15.71,1.06-32.09,8.94-45.85,7.88-13.76,20.39-24.81,35.02-30.92l3.31,6.14c-13.35,5.82-24.77,15.98-32.09,28.57-7.32,12.59-10.51,27.54-8.97,42.02"/>
      <path class="cls-7" d="M422.79,111.89c-1.72-12.8.05-26.02,5.08-37.91,4.65-10.99,12.11-20.67,21.42-28.11,5.14-4.11,10.87-7.52,16.93-10.06l-.8-.32c1.1,2.05,2.2,4.09,3.31,6.14l.25-.97c-10.02,4.38-18.96,11.17-25.91,19.61-7.44,9.03-12.5,19.89-14.65,31.4-1.25,6.65-1.55,13.46-.84,20.19.09.9,1.51.91,1.41,0-1.24-11.83.62-23.96,5.41-34.85,4.42-10.05,11.29-18.92,19.85-25.79,4.7-3.78,9.92-6.92,15.45-9.34.36-.16.42-.66.25-.97-1.1-2.05-2.2-4.09-3.31-6.14-.13-.25-.52-.44-.8-.32-11.04,4.63-20.9,11.96-28.5,21.21-8.07,9.82-13.45,21.68-15.57,34.21-1.23,7.28-1.39,14.71-.41,22.03.05.38.29.7.71.71.34,0,.76-.33.71-.71h0Z"/>
    </g>
    <circle class="cls-1" cx="378.08" cy="17.99" r="17.28"/>
    <circle class="cls-1" cx="466.85" cy="35.17" r="17.28"/>
    <g>
      <path class="cls-7" d="M329.26,101.04c12.37-17.16,33.49-27.64,54.64-27.1,21.15.54,41.71,12.08,53.19,29.85.36.56.72,1.16.74,1.82.04,1.67-1.93,2.54-3.54,2.94-28.54,7.12-58.94,6.66-87.25-1.34-4.16-1.18-8.81-2.99-10.29-7.05"/>
      <path class="cls-7" d="M329.87,101.4c4.19-5.79,9.4-10.84,15.27-14.91s12.39-7.21,19.25-9.23,14.01-2.92,21.14-2.55,13.97,1.97,20.49,4.58c6.53,2.62,12.66,6.3,18.04,10.83,2.7,2.27,5.22,4.76,7.52,7.44,1.14,1.33,2.22,2.71,3.25,4.13.5.7.99,1.41,1.46,2.13.42.65,1.1,1.49.76,2.31-.58,1.42-2.91,1.73-4.18,2.04-2.08.5-4.17.96-6.27,1.39-4.25.85-8.53,1.55-12.83,2.07-8.54,1.03-17.15,1.42-25.75,1.16s-17.2-1.17-25.67-2.73c-4.25-.78-8.46-1.73-12.64-2.84-3.27-.87-6.76-1.71-9.53-3.76-1.2-.89-2.21-2.07-2.74-3.48-.32-.84-1.69-.48-1.36.38,1.22,3.22,4.11,5.1,7.17,6.34,1.68.68,3.44,1.17,5.19,1.64,2.14.58,4.29,1.12,6.45,1.62,8.67,1.99,17.5,3.29,26.37,3.91s17.9.55,26.82-.23,17.67-2.21,26.3-4.37c1.44-.36,3.19-.99,3.89-2.41.87-1.76-.56-3.46-1.51-4.84-2.05-2.99-4.36-5.8-6.88-8.4-5.07-5.22-11.02-9.61-17.49-12.94-6.47-3.34-13.48-5.66-20.68-6.74s-14.78-.89-22.04.57-14.26,4.15-20.65,7.86-12.19,8.47-17,14.07c-1.18,1.37-2.29,2.79-3.35,4.25-.53.74.69,1.45,1.22.71h0Z"/>
    </g>
    <g>
      <ellipse class="cls-3" cx="369.61" cy="130.96" rx="17.46" ry="11.68" transform="translate(196.62 482.86) rotate(-83.33)"/>
      <ellipse class="cls-3" cx="396.64" cy="129.74" rx="17.46" ry="11.68" transform="translate(221.72 508.64) rotate(-83.33)"/>
      <g>
        <path class="cls-9" d="M381.48,154.36c2.73-4.41,6.82-7.96,11.57-10.05,1.68-.74,3.49-1.31,5.31-1.15s3.66,1.17,4.38,2.86c1.14,2.68-.87,5.66-3.1,7.54-3.08,2.6-6.83,4.4-10.78,5.19"/>
        <path class="cls-7" d="M382.09,154.71c1.52-2.43,3.45-4.59,5.69-6.39s4.93-3.4,7.73-4.16c1.46-.4,3.04-.5,4.46.11,1.19.52,2.16,1.51,2.37,2.83.46,2.86-2.32,5.39-4.38,6.89-2.77,2.01-5.92,3.39-9.27,4.07-.89.18-.51,1.55.38,1.36,3.38-.69,6.63-2.08,9.44-4.09,2.46-1.76,5.15-4.26,5.29-7.51s-3.04-5.43-6.1-5.41c-1.81.01-3.54.62-5.17,1.35-1.45.65-2.85,1.45-4.16,2.36-3,2.09-5.55,4.76-7.49,7.86-.48.77.74,1.48,1.22.71h0Z"/>
      </g>
      <ellipse class="cls-5" cx="374.52" cy="135.7" rx="4.96" ry="2.83" transform="translate(115.2 438.07) rotate(-69.3)"/>
      <ellipse class="cls-5" cx="401.84" cy="134.73" rx="4.96" ry="2.83" transform="translate(133.76 463) rotate(-69.3)"/>
    </g>
    <g>
      <path class="cls-8" d="M391.86,163.72c5.63-.35,10.79-3.35,16.32-4.46,5.53-1.11,11.75-.87,16.18,2.63,4.98,3.92,6.42,11.23,4.6,17.3-1.82,6.07-6.38,11-11.53,14.69-10.9,7.81-25.09,10.84-38.22,8.18-13.14-2.66-25.02-10.98-32.02-22.41-4.11-6.71-6.57-14.97-4.27-22.49.81-2.64,2.26-5.19,4.58-6.69,2.32-1.5,5.6-1.69,7.75.04,1.5,1.21,5.18,5.09,10.75,8.9,0,0,9.01,5.34,25.87,4.3Z"/>
      <path class="cls-7" d="M391.86,164.43c4.47-.3,8.57-2.13,12.79-3.49,3.92-1.26,8.13-1.96,12.24-1.36,3.78.55,7.35,2.33,9.54,5.54,2.02,2.97,2.8,6.65,2.54,10.2-.59,8.03-6.71,14.49-13.08,18.76-6.92,4.64-15.05,7.42-23.35,8.06s-16.19-.78-23.54-4.17c-7.08-3.26-13.37-8.2-18.18-14.34-5.06-6.45-9.06-14.91-7.88-23.31.52-3.73,2.18-8.16,5.89-9.79,1.65-.72,3.7-.82,5.3.06,1.03.57,1.88,1.52,2.74,2.31,1.3,1.2,2.62,2.37,3.98,3.49,1.53,1.26,3.1,2.57,4.79,3.61.79.48,1.68.83,2.53,1.18,5.4,2.2,11.34,3.11,17.14,3.31,2.18.08,4.37.04,6.55-.1.9-.05.91-1.47,0-1.41-7.17.43-14.52-.12-21.36-2.44-1.4-.47-2.59-.93-3.87-1.61-.73-.39-1.39-.92-2.05-1.41-1.75-1.29-3.43-2.68-5.06-4.12-1.08-.96-2.13-1.96-3.21-2.92-1.25-1.11-2.64-1.81-4.33-1.92-4.16-.28-7.43,2.82-9.01,6.4-3.64,8.26-.81,17.87,3.7,25.18,4.24,6.87,10.23,12.63,17.18,16.72s15.19,6.57,23.43,6.81c8.6.25,17.27-1.75,24.89-5.75,7.27-3.81,14.35-9.67,17.16-17.63,2.48-7.02.72-15.95-5.98-19.98-3.55-2.14-7.87-2.63-11.93-2.26-2.18.2-4.32.63-6.42,1.27-2.23.68-4.39,1.52-6.6,2.25s-4.3,1.27-6.54,1.42c-.9.06-.91,1.48,0,1.41Z"/>
    </g>
    <path class="cls-7" d="M360.89,155.99c-5.67,6.61-10.74,13.91-14.72,21.67-.41.81.8,1.52,1.22.71,3.93-7.65,8.91-14.86,14.5-21.38.59-.69-.41-1.69-1-1h0Z"/>
    <path class="cls-7" d="M383.97,164.12c-2.35,9.4-4.32,18.9-5.91,28.45-.45,2.73-.87,5.47-1.27,8.21-.13.89,1.24,1.27,1.36.38,1.37-9.59,3.12-19.13,5.25-28.58.61-2.7,1.25-5.39,1.92-8.08.22-.88-1.14-1.26-1.36-.38h0Z"/>
    <path class="cls-7" d="M405.25,160.26c1.09,9.69,2.18,19.37,3.27,29.06.31,2.73.62,5.46.92,8.2.1.89,1.52.9,1.41,0-1.09-9.69-2.18-19.37-3.27-29.06-.31-2.73-.62-5.46-.92-8.2-.1-.89-1.52-.9-1.41,0h0Z"/>
    <path class="cls-7" d="M342.61,159.25c9.98,8.61,21.6,15.73,34.33,19.42,5.77,1.67,11.71,2.53,17.72,2.33s11.73-1.26,17.27-3.2c6.1-2.13,11.86-5.33,16.6-9.75.67-.62-.34-1.62-1-1-8.28,7.74-19.8,11.71-30.98,12.45-5.81.39-11.56-.19-17.19-1.63-6.26-1.6-12.27-4.1-17.93-7.19-6.37-3.47-12.33-7.68-17.82-12.42-.69-.59-1.69.4-1,1h0Z"/>
    <path class="cls-2" d="M328.33,109.29s-51.93,91.68,44.14,109.81l3.48-8.66s-71.24-3.05-44.06-93.46l-3.55-7.69Z"/>
    <path class="cls-2" d="M436.16,110.53s51.93,91.68-44.14,109.81l-3.48-8.66s71.24-3.05,44.06-93.46l3.55-7.69Z"/>
    <g>
      <path class="cls-6" d="M328.31,117.7c27.11,7.67,62.95,8.08,91.12,7.41,7.67-.18,15.48-.46,22.71-3.03,5.72-2.03,11.24-5.88,13.22-11.61,1.41-4.07.83-8.67-1.02-12.55-1.86-3.88-4.91-7.1-8.37-9.68-1.58-1.18-3.4-2.28-5.37-2.17-2.34.13-4.26,1.93-5.57,3.88-1.32,1.94-2.28,4.15-3.91,5.84-3.33,3.45-9.33,3.86-13.09.89.68-6.33,8.49-10.8,7.56-17.1-.64-4.29-5.07-6.82-9.1-8.41-4.1-1.61-8.32-2.91-12.62-3.88-1.74-.4-3.64-.72-5.26.02-1.8.82-2.82,2.8-3.16,4.74s-.15,3.94-.22,5.92c-.14,4-1.53,8.15-4.6,10.73-3.06,2.58-7.99,3.11-11.04.52-6-5.1-1-16.66-6.93-21.84-3.52-3.08-8.97-2.05-13.26-.2-4.35,1.87-8.41,4.41-12,7.49-2.27,1.95-4.5,4.49-4.38,7.48.12,2.79,2.22,5.01,3.76,7.34,1.53,2.33,2.43,5.75.42,7.69-1.76,1.69-4.72,1.14-6.82-.11-2.1-1.26-3.87-3.1-6.19-3.9-3.9-1.35-8.1.59-11.77,2.48-3.45,1.78-7.32,4.11-7.87,7.96-.51,3.54,2.09,6.77,4.87,9.01,0,0,5.82,4.22,8.9,5.1Z"/>
      <path class="cls-7" d="M328.12,118.38c12.31,3.47,25.07,5.24,37.8,6.31,13.22,1.11,26.5,1.42,39.76,1.34,6.45-.04,12.91-.09,19.35-.39,6.87-.32,13.96-1.12,20.24-4.09,5.21-2.46,9.99-6.7,11.24-12.55,1.38-6.48-1.46-12.94-5.87-17.6-1.13-1.19-2.37-2.29-3.67-3.29s-2.59-1.92-4.13-2.43c-3.07-1.01-5.87.61-7.75,2.99s-2.98,5.76-5.63,7.61c-2.13,1.49-4.89,2.01-7.43,1.48-1.27-.27-2.48-.79-3.51-1.58l.21.5c.76-6.47,8.66-10.4,7.52-17.37-.59-3.61-3.75-6.04-6.82-7.59-1.85-.93-3.8-1.65-5.75-2.33-2.26-.79-4.56-1.5-6.88-2.1-2.15-.56-4.53-1.34-6.78-1.07-1.96.23-3.52,1.43-4.42,3.17-1,1.93-1.09,4.09-1.08,6.22s-.03,4.24-.6,6.33c-1.02,3.77-3.55,7.16-7.5,8.07-1.73.4-3.65.29-5.24-.55-1.38-.72-2.4-1.93-3.05-3.33-1.31-2.83-1.22-6.17-1.42-9.22s-.53-6.27-2.4-8.76c-2.3-3.05-6.07-3.78-9.68-3.25-4.1.6-8.01,2.59-11.51,4.73-1.94,1.19-3.8,2.52-5.56,3.97-1.56,1.29-3.09,2.71-4.13,4.48s-1.41,3.68-.89,5.61,1.83,3.61,2.99,5.25c1.06,1.5,2.04,3.17,2.11,5.06s-1.04,3.37-2.94,3.52c-4.17.33-6.83-3.94-10.54-5.11-4.35-1.37-8.89.92-12.65,2.91-3.06,1.62-6.52,3.77-7.49,7.33-1.1,4.04,1.66,7.76,4.59,10.22,1.72,1.44,3.73,2.64,5.67,3.75,1.22.7,2.49,1.38,3.85,1.78.88.26,1.25-1.11.38-1.36-2.38-.7-4.58-2.22-6.63-3.58-1.82-1.21-3.5-2.47-4.85-4.23-1-1.31-1.8-2.88-1.84-4.57-.04-1.56.59-3.02,1.6-4.19,2.13-2.48,5.39-4.01,8.31-5.35,1.79-.82,3.71-1.55,5.69-1.67s3.61.4,5.2,1.42c2.81,1.8,5.41,4.5,9.05,4.03,1.5-.19,2.87-1.05,3.53-2.44s.58-3.01.14-4.47c-.47-1.59-1.36-2.93-2.31-4.26-1.01-1.42-2.13-2.88-2.54-4.6-.86-3.61,2.29-6.53,4.8-8.59,3.04-2.5,6.41-4.59,9.98-6.24,2.97-1.37,6.35-2.53,9.67-2.07,2.88.4,5.1,2.28,6.05,5.01,1.79,5.11.2,10.94,2.69,15.87,1.33,2.64,3.88,4.3,6.82,4.51,3.22.24,6.41-1.2,8.5-3.62,2.23-2.58,3.3-5.97,3.54-9.33s-.77-7.95,2.3-10.28c1.55-1.17,3.62-.82,5.38-.42,2.03.45,4.04.99,6.03,1.59,3.49,1.05,7.13,2.19,10.3,4.04,2.51,1.46,4.92,3.68,5.04,6.77.11,2.77-1.57,5.19-3.1,7.34-1.63,2.29-3.45,4.59-4.22,7.34-.15.54-.54,1.59-.16,2.07.41.53,1.26.93,1.86,1.21,1.37.66,2.86,1.01,4.38,1.05,3.01.09,6.08-1.06,8.12-3.31,2.38-2.63,3.38-6.54,6.5-8.49,3.45-2.16,7.02.87,9.53,3.13,2.69,2.4,5.03,5.32,6.35,8.7s1.7,7.48.41,11.07c-1.11,3.07-3.38,5.62-6.01,7.51-6.18,4.43-14.08,5.67-21.49,6.15-7.33.47-14.72.47-22.06.51s-14.93-.05-22.39-.34c-7.56-.29-15.12-.77-22.64-1.56-7.3-.76-14.59-1.81-21.78-3.32-3.28-.69-6.53-1.48-9.75-2.38-.88-.25-1.25,1.12-.38,1.36Z"/>
    </g>
    <rect class="cls-2" x="369.31" y="207.5" width="24.51" height="17.33" rx="2.08" ry="2.08" transform="translate(8.46 -14.29) rotate(2.17)"/>
  </g>
  <path class="cls-4" d="M121.35,252.91c5.72-6.22,8.74-14.52,10.13-22.86,2.02,7.34,10.09,12.01,17.68,11.46,7.59-.55,14.37-5.52,18.57-11.87,4.19-6.35,6.1-13.94,7.08-21.49,6.47,9.29,19.55,13.33,30.13,9.31,2.86-1.09,5.58-2.75,7.43-5.19,1.85-2.44,2.7-5.75,1.75-8.65-.04-.13-.05-.32-.05-.54-11.98-15.82-30.95-26.04-52.32-26.04-36.23,0-65.59,29.37-65.59,65.59,0,6.51.96,12.8,2.73,18.73,8.21,1.49,16.82-2.31,22.47-8.46Z"/>
</svg>